<?xml version="1.0" standalone="no"?>
<!DOCTYPE svg PUBLIC "-//W3C//DTD SVG 20010904//EN"
 "http://www.w3.org/TR/2001/REC-SVG-20010904/DTD/svg10.dtd">
<svg version="1.0" xmlns="http://www.w3.org/2000/svg"
 width="1000.000000pt" height="1000.000000pt" viewBox="0 0 1000.000000 1000.000000"
 preserveAspectRatio="xMidYMid meet">
<metadata>
Created by potrace 1.14, written by Peter Selinger 2001-2017
</metadata>
<g transform="translate(0.000000,1000.000000) scale(0.100000,-0.100000)"
fill="#000000" stroke="none">
<path d="M5419 7995 c-106 -35 -230 -117 -259 -174 -17 -34 -14 -98 6 -129 9
-14 48 -57 86 -96 38 -39 103 -123 145 -186 130 -200 213 -330 213 -334 0 -2
19 -32 41 -65 l41 -62 -6 -87 c-7 -96 -26 -253 -41 -352 -20 -127 -25 -160
-30 -205 -4 -27 -8 -57 -10 -65 -3 -8 -12 -60 -20 -115 -23 -145 -32 -199 -50
-300 -9 -49 -17 -99 -19 -110 -26 -157 -40 -224 -46 -220 -4 3 -11 22 -15 42
-5 21 -10 43 -11 48 -2 6 -12 43 -23 83 -28 100 -103 286 -163 405 -46 89
-185 309 -228 361 -137 163 -155 182 -276 296 -261 244 -568 417 -931 524
-110 33 -239 60 -343 72 -25 3 -70 9 -100 13 -99 13 -379 3 -555 -20 -279 -36
-603 -157 -870 -324 -219 -137 -346 -247 -573 -495 l-41 -45 -2 85 c0 47 -2
92 -3 100 -2 8 -6 44 -10 80 -3 36 -12 97 -20 135 -8 39 -17 86 -20 105 -8 53
-46 253 -51 270 -2 8 -6 31 -9 50 -3 19 -14 80 -25 135 -11 55 -22 112 -24
126 -13 69 -53 199 -74 243 -37 72 -108 139 -178 165 -119 45 -229 29 -422
-60 -101 -46 -123 -63 -123 -94 0 -40 32 -119 75 -185 53 -81 66 -107 76 -145
4 -16 16 -59 27 -95 40 -128 143 -487 171 -595 33 -125 37 -149 46 -260 3 -44
9 -96 11 -115 3 -19 7 -105 9 -190 4 -234 -7 -296 -150 -774 -112 -378 -214
-656 -363 -986 -59 -129 -146 -363 -157 -420 -2 -8 -10 -43 -19 -77 -22 -83
-53 -236 -61 -303 -38 -291 58 -512 313 -726 46 -38 88 -74 95 -79 30 -26 149
-94 222 -127 135 -62 466 -214 545 -251 272 -126 434 -199 495 -222 201 -76
432 -156 445 -154 3 0 19 -5 35 -11 30 -12 119 -31 225 -50 58 -10 96 -15 200
-25 36 -4 83 -9 105 -12 22 -3 110 -6 195 -7 222 -3 448 28 685 96 160 45 320
99 326 110 16 25 -16 48 -171 127 -172 88 -227 106 -500 161 -80 16 -221 46
-315 65 -93 20 -181 38 -195 41 -157 31 -522 136 -725 209 -232 83 -568 247
-682 331 -17 13 -35 24 -38 24 -11 0 -190 127 -258 182 -90 75 -142 134 -182
210 -49 92 -54 169 -26 353 12 77 24 158 27 180 11 78 15 101 24 150 6 28 16
67 24 88 l13 39 11 -29 c5 -15 27 -73 47 -128 68 -182 176 -392 264 -515 77
-108 111 -152 165 -215 181 -210 449 -422 676 -536 141 -71 456 -192 570 -221
70 -17 199 -38 281 -45 109 -10 384 -10 474 0 541 63 1051 307 1409 675 l69
71 36 -47 c19 -26 46 -55 58 -65 13 -10 29 -24 36 -31 6 -7 39 -27 71 -45 251
-137 585 -40 710 206 73 145 81 276 27 428 -30 82 -32 97 -27 173 3 46 8 87
10 90 2 4 7 30 10 57 4 28 9 61 11 75 3 14 7 41 9 60 5 35 14 94 21 140 3 14
14 88 25 165 12 77 23 151 25 165 3 14 7 43 10 65 3 22 10 65 15 95 6 30 12
75 15 100 3 25 10 70 15 100 5 30 12 73 15 95 3 22 12 81 20 130 7 50 17 110
20 135 3 25 8 56 10 70 22 140 56 364 60 400 3 25 7 52 10 60 2 8 7 39 10 69
4 30 8 61 10 70 1 9 6 42 10 74 3 32 10 57 15 55 4 -2 46 -60 93 -129 46 -69
114 -169 151 -223 36 -53 66 -101 66 -105 0 -5 4 -11 8 -13 9 -3 142 -204 142
-213 0 -6 63 -101 80 -122 6 -7 31 -43 57 -80 77 -112 199 -227 279 -265 107
-51 240 -48 369 6 61 26 298 199 419 306 212 188 338 324 434 472 31 48 61 88
65 88 5 0 6 -3 4 -7 -3 -5 -8 -48 -12 -97 -4 -50 -8 -97 -10 -105 -1 -9 -6
-52 -10 -96 -3 -44 -8 -93 -9 -110 -2 -16 -6 -66 -10 -110 -4 -44 -11 -116
-16 -160 -5 -44 -12 -105 -15 -135 -3 -30 -15 -127 -26 -215 -27 -210 -29
-224 -34 -254 -2 -14 -6 -51 -10 -81 -3 -30 -8 -66 -10 -80 -3 -14 -7 -45 -10
-70 -3 -25 -10 -72 -15 -105 -5 -33 -12 -87 -16 -120 -3 -33 -7 -62 -9 -65 -2
-3 -6 -34 -10 -70 -3 -36 -8 -72 -10 -80 -4 -16 -12 -68 -20 -140 -3 -25 -7
-56 -10 -70 -5 -28 -10 -70 -20 -153 -8 -63 -24 -87 -59 -87 -29 0 -177 -43
-246 -72 -281 -117 -520 -377 -586 -638 -22 -88 -15 -221 17 -310 30 -80 117
-173 199 -213 239 -115 590 -67 873 120 98 64 252 221 309 313 55 88 94 199
103 290 3 36 8 81 10 100 6 49 18 217 30 420 5 83 10 151 20 260 3 30 7 84 10
120 3 36 7 76 10 90 2 14 7 54 10 90 3 36 8 76 10 90 2 14 7 53 10 87 3 34 8
72 10 85 3 13 7 43 10 68 3 25 7 56 10 70 2 14 7 49 10 79 4 30 8 61 10 70 1
9 6 39 9 66 4 28 9 61 11 75 14 94 17 116 30 230 2 14 6 48 9 75 3 28 8 75 11
105 2 30 7 78 10 105 9 71 13 120 20 195 5 65 11 134 20 220 2 25 7 81 10 125
7 109 15 220 20 280 2 28 7 95 10 150 6 103 15 198 20 203 11 11 312 -131 351
-166 10 -9 37 -29 59 -44 82 -56 205 -187 283 -303 68 -101 138 -253 187 -405
61 -187 62 -190 79 -190 33 0 36 37 36 377 0 186 -1 349 -3 363 -2 14 -7 50
-12 80 -53 393 -259 761 -547 974 -35 26 -70 52 -78 59 -50 39 -231 130 -361
182 -91 37 -159 56 -279 81 -30 6 -177 6 -205 0 -123 -25 -295 -87 -308 -111
-6 -11 -11 -94 -12 -200 -3 -210 -15 -306 -57 -429 -77 -229 -202 -410 -408
-587 -89 -76 -197 -159 -209 -159 -5 0 -11 -4 -13 -9 -7 -20 -164 -104 -200
-106 -53 -4 -70 10 -166 130 -5 6 -48 69 -97 140 -196 288 -295 424 -350 481
-5 6 -29 33 -52 60 -23 27 -50 59 -60 71 -10 12 -27 32 -38 45 -16 20 -173
240 -275 388 -18 25 -57 82 -88 126 -31 45 -109 157 -172 250 -231 338 -351
409 -571 339z m-2099 -2748 c84 -40 132 -107 148 -207 14 -98 -10 -177 -76
-245 -150 -155 -427 -72 -468 140 -24 128 36 261 142 311 77 37 179 37 254 1z"/>
<path d="M6533 4639 c-137 -138 -282 -285 -324 -328 -112 -113 -110 -110 -115
-258 -2 -71 -6 -139 -8 -153 -55 -332 -271 -652 -555 -820 -176 -105 -379
-165 -567 -169 -74 -1 -127 -7 -143 -16 -14 -7 -176 -165 -359 -351 -344 -349
-360 -369 -302 -384 14 -4 334 -6 711 -5 648 1 688 2 715 20 16 10 146 136
289 281 143 145 413 417 601 606 187 189 349 356 360 372 17 27 18 48 15 310
-1 155 -4 468 -4 697 -2 440 -3 449 -48 449 -11 0 -119 -102 -266 -251z"/>
</g>
</svg>
